<?xml version="1.0" encoding="UTF-8" standalone="no"?>
<svg
   version="1.1"
   id="svg10"
   xml:space="preserve"
   width="350"
   height="255.28653"
   viewBox="0 0 350 255.28653"
   sodipodi:docname="logo.svg"
   inkscape:version="1.1 (c68e22c387, 2021-05-23)"
   xmlns:inkscape="http://www.inkscape.org/namespaces/inkscape"
   xmlns:sodipodi="http://sodipodi.sourceforge.net/DTD/sodipodi-0.dtd"
   xmlns="http://www.w3.org/2000/svg"
   xmlns:svg="http://www.w3.org/2000/svg"
   xmlns:rdf="http://www.w3.org/1999/02/22-rdf-syntax-ns#"
   xmlns:cc="http://creativecommons.org/ns#"
   xmlns:dc="http://purl.org/dc/elements/1.1/"><metadata
     id="metadata16"><rdf:RDF><cc:Work
         rdf:about=""><dc:format>image/svg+xml</dc:format><dc:type
           rdf:resource="http://purl.org/dc/dcmitype/StillImage" /></cc:Work></rdf:RDF></metadata><defs
     id="defs14"><clipPath
       clipPathUnits="userSpaceOnUse"
       id="clipPath26"><path
         d="m 257.94,265.192 c -1.817,-0.855 -3.385,-2.023 -4.706,-3.504 v 0 c -1.322,-1.482 -2.358,-3.222 -3.109,-5.223 v 0 C 249.375,254.464 249,252.303 249,249.982 v 0 c 0,-2.199 0.33,-4.245 0.99,-6.139 v 0 c 0.661,-1.893 1.622,-3.543 2.883,-4.948 v 0 c 1.261,-1.404 2.815,-2.504 4.662,-3.298 v 0 c 1.846,-0.793 3.955,-1.191 6.327,-1.191 v 0 c 3.153,0 5.75,0.596 7.792,1.786 v 0 c 2.041,1.191 3.768,3.054 5.179,5.59 v 0 l -1.576,1.237 c -1.081,-2.138 -2.508,-3.765 -4.279,-4.88 v 0 c -1.772,-1.115 -3.693,-1.671 -5.764,-1.671 v 0 c -1.802,0 -3.327,0.373 -4.572,1.122 v 0 c -1.246,0.748 -2.267,1.748 -3.062,3.001 v 0 c -0.797,1.252 -1.374,2.695 -1.735,4.33 v 0 c -0.359,1.633 -0.54,3.321 -0.54,5.061 v 0 c 0,2.779 0.255,5.093 0.766,6.941 v 0 c 0.51,1.849 1.216,3.329 2.116,4.444 v 0 c 0.901,1.114 1.952,1.902 3.153,2.36 v 0 c 1.201,0.458 2.492,0.687 3.874,0.687 v 0 c 2.492,0 4.495,-0.741 6.012,-2.222 v 0 c 1.515,-1.482 2.559,-3.612 3.13,-6.391 v 0 h 1.351 c 0,1.343 -0.044,2.641 -0.135,3.894 v 0 c -0.09,1.252 -0.436,2.275 -1.036,3.069 v 0 c -0.841,0.978 -2.124,1.84 -3.85,2.589 v 0 c -1.727,0.748 -4.002,1.123 -6.824,1.123 v 0 c -2.131,0 -4.106,-0.429 -5.922,-1.284"
         id="path24" /></clipPath><linearGradient
       x1="0"
       y1="0"
       x2="1"
       y2="0"
       gradientUnits="userSpaceOnUse"
       gradientTransform="matrix(0,-46.710922,-46.710922,0,262.9166,279.57718)"
       spreadMethod="pad"
       id="linearGradient36"><stop
         style="stop-opacity:1;stop-color:#89c341"
         offset="0"
         id="stop32" /><stop
         style="stop-opacity:1;stop-color:#009047"
         offset="1"
         id="stop34" /></linearGradient><clipPath
       clipPathUnits="userSpaceOnUse"
       id="clipPath46"><path
         d="m 288.339,265.238 c -1.817,-0.824 -3.377,-1.955 -4.683,-3.389 v 0 c -1.306,-1.437 -2.312,-3.132 -3.018,-5.085 v 0 c -0.706,-1.956 -1.058,-4.064 -1.058,-6.324 v 0 c 0,-2.26 0.352,-4.367 1.058,-6.321 v 0 c 0.706,-1.956 1.712,-3.651 3.018,-5.086 v 0 c 1.306,-1.436 2.866,-2.565 4.683,-3.39 v 0 c 1.816,-0.825 3.85,-1.237 6.103,-1.237 v 0 c 2.252,0 4.285,0.412 6.102,1.237 v 0 c 1.816,0.825 3.371,1.954 4.662,3.39 v 0 c 1.291,1.435 2.289,3.13 2.995,5.086 v 0 c 0.705,1.954 1.058,4.061 1.058,6.321 v 0 c 0,2.26 -0.353,4.368 -1.058,6.324 v 0 c -0.706,1.953 -1.704,3.648 -2.995,5.085 v 0 c -1.291,1.434 -2.846,2.565 -4.662,3.389 v 0 c -1.817,0.825 -3.85,1.238 -6.102,1.238 v 0 c -2.253,0 -4.287,-0.413 -6.103,-1.238 m -0.225,-25.129 c -1.486,2.428 -2.229,5.872 -2.229,10.331 v 0 c 0,4.46 0.743,7.903 2.229,10.331 v 0 c 1.486,2.429 3.596,3.643 6.328,3.643 v 0 c 2.732,0 4.849,-1.214 6.351,-3.643 v 0 c 1.501,-2.428 2.251,-5.871 2.251,-10.331 v 0 c 0,-4.459 -0.75,-7.903 -2.251,-10.331 v 0 c -1.502,-2.427 -3.619,-3.641 -6.351,-3.641 v 0 c -2.732,0 -4.842,1.214 -6.328,3.641"
         id="path44" /></clipPath><linearGradient
       x1="0"
       y1="0"
       x2="1"
       y2="0"
       gradientUnits="userSpaceOnUse"
       gradientTransform="matrix(0,-46.710922,-46.710922,0,294.41956,279.57718)"
       spreadMethod="pad"
       id="linearGradient56"><stop
         style="stop-opacity:1;stop-color:#89c341"
         offset="0"
         id="stop52" /><stop
         style="stop-opacity:1;stop-color:#009047"
         offset="1"
         id="stop54" /></linearGradient><clipPath
       clipPathUnits="userSpaceOnUse"
       id="clipPath66"><path
         d="m 339.885,265.559 -9.234,-22.494 -10.899,22.494 h -5.494 v -30.237 h 2.252 v 24.923 l 12.07,-24.923 h 1.486 l 9.863,24.007 v -16.218 c 0,-3.452 0.706,-5.956 2.118,-7.514 v 0 c 1.41,-1.557 3.752,-2.336 7.025,-2.336 v 0 1.145 c -1.261,0.245 -2.125,1.061 -2.59,2.451 v 0 c -0.465,1.39 -0.698,3.474 -0.698,6.254 v 0 22.448 z"
         id="path64" /></clipPath><linearGradient
       x1="0"
       y1="0"
       x2="1"
       y2="0"
       gradientUnits="userSpaceOnUse"
       gradientTransform="matrix(0,-46.710922,-46.710922,0,331.66528,279.57718)"
       spreadMethod="pad"
       id="linearGradient76"><stop
         style="stop-opacity:1;stop-color:#89c341"
         offset="0"
         id="stop72" /><stop
         style="stop-opacity:1;stop-color:#009047"
         offset="1"
         id="stop74" /></linearGradient><clipPath
       clipPathUnits="userSpaceOnUse"
       id="clipPath86"><path
         d="m 350.648,265.559 v -1.374 h 0.45 c 1.351,0 2.214,-0.42 2.59,-1.26 v 0 c 0.375,-0.84 0.563,-1.948 0.563,-3.321 v 0 -24.282 h 16.664 c 1.231,0 2.109,0.291 2.634,0.87 v 0 c 0.525,0.581 0.954,1.359 1.284,2.338 v 0 l 1.306,3.619 -1.216,0.458 c -0.781,-1.987 -1.749,-3.353 -2.905,-4.101 v 0 c -1.156,-0.749 -2.56,-1.123 -4.211,-1.123 v 0 h -7.702 v 12.599 h 11.711 v 2.062 h -11.711 v 11.453 h 7.252 c 1.801,0 3.19,-0.427 4.166,-1.282 v 0 c 0.975,-0.856 1.463,-2.261 1.463,-4.215 v 0 h 1.352 v 3.895 c 0,0.458 -0.053,0.908 -0.158,1.35 v 0 c -0.106,0.442 -0.3,0.832 -0.586,1.169 v 0 c -0.285,0.335 -0.675,0.61 -1.17,0.824 v 0 c -0.496,0.214 -1.134,0.321 -1.914,0.321 v 0 z"
         id="path84" /></clipPath><linearGradient
       x1="0"
       y1="0"
       x2="1"
       y2="0"
       gradientUnits="userSpaceOnUse"
       gradientTransform="matrix(0,-46.710922,-46.710922,0,363.39352,279.57718)"
       spreadMethod="pad"
       id="linearGradient96"><stop
         style="stop-opacity:1;stop-color:#89c341"
         offset="0"
         id="stop92" /><stop
         style="stop-opacity:1;stop-color:#009047"
         offset="1"
         id="stop94" /></linearGradient><clipPath
       clipPathUnits="userSpaceOnUse"
       id="clipPath106"><path
         d="m 388.93,265.559 v -1.374 h 0.45 c 1.35,0 2.214,-0.42 2.589,-1.26 v 0 c 0.376,-0.84 0.563,-1.948 0.563,-3.321 v 0 -24.282 h 5.855 v 14.432 h 9.909 v 2.062 h -9.909 v 11.681 h 6.261 c 1.801,0 3.19,-0.42 4.166,-1.259 v 0 c 0.975,-0.84 1.464,-2.253 1.464,-4.238 v 0 h 1.351 v 3.895 c 0,0.458 -0.054,0.908 -0.158,1.35 v 0 c -0.106,0.442 -0.301,0.832 -0.586,1.169 v 0 c -0.285,0.335 -0.676,0.61 -1.171,0.824 v 0 c -0.495,0.214 -1.133,0.321 -1.914,0.321 v 0 z"
         id="path104" /></clipPath><linearGradient
       x1="0"
       y1="0"
       x2="1"
       y2="0"
       gradientUnits="userSpaceOnUse"
       gradientTransform="matrix(0,-46.710922,-46.710922,0,400.27914,279.57718)"
       spreadMethod="pad"
       id="linearGradient116"><stop
         style="stop-opacity:1;stop-color:#89c341"
         offset="0"
         id="stop112" /><stop
         style="stop-opacity:1;stop-color:#009047"
         offset="1"
         id="stop114" /></linearGradient><clipPath
       clipPathUnits="userSpaceOnUse"
       id="clipPath126"><path
         d="m 422.955,265.238 c -1.817,-0.824 -3.378,-1.955 -4.684,-3.389 v 0 c -1.306,-1.437 -2.312,-3.132 -3.017,-5.085 v 0 c -0.706,-1.956 -1.059,-4.064 -1.059,-6.324 v 0 c 0,-2.26 0.353,-4.367 1.059,-6.321 v 0 c 0.705,-1.956 1.711,-3.651 3.017,-5.086 v 0 c 1.306,-1.436 2.867,-2.565 4.684,-3.39 v 0 c 1.816,-0.825 3.85,-1.237 6.102,-1.237 v 0 c 2.252,0 4.286,0.412 6.103,1.237 v 0 c 1.817,0.825 3.37,1.954 4.662,3.39 v 0 c 1.29,1.435 2.289,3.13 2.994,5.086 v 0 c 0.706,1.954 1.059,4.061 1.059,6.321 v 0 c 0,2.26 -0.353,4.368 -1.059,6.324 v 0 c -0.705,1.953 -1.704,3.648 -2.994,5.085 v 0 c -1.292,1.434 -2.845,2.565 -4.662,3.389 v 0 c -1.817,0.825 -3.851,1.238 -6.103,1.238 v 0 c -2.252,0 -4.286,-0.413 -6.102,-1.238 m -0.226,-25.129 c -1.486,2.428 -2.228,5.872 -2.228,10.331 v 0 c 0,4.46 0.742,7.903 2.228,10.331 v 0 c 1.487,2.429 3.596,3.643 6.328,3.643 v 0 c 2.732,0 4.849,-1.214 6.351,-3.643 v 0 c 1.501,-2.428 2.252,-5.871 2.252,-10.331 v 0 c 0,-4.459 -0.751,-7.903 -2.252,-10.331 v 0 c -1.502,-2.427 -3.619,-3.641 -6.351,-3.641 v 0 c -2.732,0 -4.841,1.214 -6.328,3.641"
         id="path124" /></clipPath><linearGradient
       x1="0"
       y1="0"
       x2="1"
       y2="0"
       gradientUnits="userSpaceOnUse"
       gradientTransform="matrix(0,-46.710922,-46.710922,0,429.035,279.57718)"
       spreadMethod="pad"
       id="linearGradient136"><stop
         style="stop-opacity:1;stop-color:#89c341"
         offset="0"
         id="stop132" /><stop
         style="stop-opacity:1;stop-color:#009047"
         offset="1"
         id="stop134" /></linearGradient><clipPath
       clipPathUnits="userSpaceOnUse"
       id="clipPath146"><path
         d="m 445.946,265.559 v -1.374 h 0.45 c 1.351,0 2.214,-0.42 2.59,-1.26 v 0 c 0.375,-0.84 0.563,-1.948 0.563,-3.321 v 0 -24.282 h 5.9 v 13.836 h 1.802 l 4.504,-7.651 c 0.75,-1.252 1.478,-2.306 2.183,-3.161 v 0 c 0.706,-0.855 1.411,-1.543 2.118,-2.062 v 0 c 0.705,-0.52 1.426,-0.885 2.161,-1.1 v 0 c 0.735,-0.213 1.494,-0.319 2.274,-0.319 v 0 c 0.572,0 1.163,0.045 1.78,0.137 v 0 c 0.615,0.091 1.043,0.199 1.284,0.32 v 0 1.146 c -0.331,0.06 -0.699,0.174 -1.104,0.344 v 0 c -0.405,0.167 -0.849,0.434 -1.328,0.801 v 0 c -0.481,0.367 -0.985,0.863 -1.509,1.489 v 0 c -0.526,0.626 -1.074,1.427 -1.645,2.405 v 0 l -4.729,8.018 c 0.841,0.213 1.696,0.504 2.568,0.87 v 0 c 0.87,0.367 1.659,0.847 2.365,1.443 v 0 c 0.705,0.596 1.276,1.328 1.71,2.2 v 0 c 0.436,0.87 0.655,1.9 0.655,3.092 v 0 c 0,1.252 -0.204,2.328 -0.608,3.229 v 0 c -0.406,0.901 -0.941,1.665 -1.6,2.291 v 0 c -0.661,0.625 -1.419,1.129 -2.274,1.512 v 0 c -0.856,0.381 -1.733,0.679 -2.635,0.893 v 0 c -0.901,0.214 -1.788,0.351 -2.657,0.413 v 0 c -0.871,0.061 -1.667,0.091 -2.387,0.091 v 0 z m 9.503,-2.153 c 0.27,0.03 0.57,0.075 0.9,0.137 v 0 c 0.271,0.062 0.586,0.107 0.947,0.138 v 0 c 0.36,0.03 0.72,0.046 1.081,0.046 v 0 c 0.659,0 1.335,-0.108 2.026,-0.321 v 0 c 0.69,-0.214 1.321,-0.573 1.892,-1.077 v 0 c 0.571,-0.503 1.036,-1.161 1.397,-1.97 v 0 c 0.359,-0.81 0.54,-1.809 0.54,-3 v 0 c 0,-1.192 -0.181,-2.199 -0.54,-3.024 v 0 c -0.361,-0.825 -0.835,-1.482 -1.42,-1.97 v 0 c -0.586,-0.489 -1.238,-0.84 -1.959,-1.054 v 0 c -0.72,-0.214 -1.441,-0.321 -2.162,-0.321 v 0 h -2.702 z"
         id="path144" /></clipPath><linearGradient
       x1="0"
       y1="0"
       x2="1"
       y2="0"
       gradientUnits="userSpaceOnUse"
       gradientTransform="matrix(0,-46.710922,-46.710922,0,459.75061,279.57718)"
       spreadMethod="pad"
       id="linearGradient156"><stop
         style="stop-opacity:1;stop-color:#89c341"
         offset="0"
         id="stop152" /><stop
         style="stop-opacity:1;stop-color:#009047"
         offset="1"
         id="stop154" /></linearGradient><clipPath
       clipPathUnits="userSpaceOnUse"
       id="clipPath166"><path
         d="m 506.568,265.559 v -13.515 h -12.161 v 7.56 c 0,1.129 -0.06,2.076 -0.18,2.84 v 0 c -0.121,0.763 -0.339,1.375 -0.653,1.833 v 0 c -0.316,0.458 -0.736,0.786 -1.261,0.985 v 0 c -0.526,0.198 -1.179,0.297 -1.959,0.297 v 0 h -5.405 v -1.374 h 0.451 c 1.351,0 2.215,-0.42 2.589,-1.26 v 0 c 0.375,-0.84 0.562,-1.948 0.562,-3.321 v 0 -24.282 h 5.856 v 14.66 h 12.161 v -8.704 c 0,-1.161 0.059,-2.124 0.179,-2.886 v 0 c 0.12,-0.764 0.338,-1.374 0.653,-1.832 v 0 c 0.316,-0.458 0.735,-0.78 1.261,-0.963 v 0 c 0.526,-0.183 1.178,-0.275 1.96,-0.275 v 0 h 5.403 v 1.374 h -0.45 c -1.35,0 -2.214,0.42 -2.588,1.26 v 0 c -0.377,0.84 -0.564,1.948 -0.564,3.322 v 0 24.281 z"
         id="path164" /></clipPath><linearGradient
       x1="0"
       y1="0"
       x2="1"
       y2="0"
       gradientUnits="userSpaceOnUse"
       gradientTransform="matrix(0,-46.710922,-46.710922,0,500.48697,279.57718)"
       spreadMethod="pad"
       id="linearGradient176"><stop
         style="stop-opacity:1;stop-color:#89c341"
         offset="0"
         id="stop172" /><stop
         style="stop-opacity:1;stop-color:#009047"
         offset="1"
         id="stop174" /></linearGradient><clipPath
       clipPathUnits="userSpaceOnUse"
       id="clipPath186"><path
         d="m 517.375,265.559 v -1.374 h 0.45 c 1.351,0 2.215,-0.42 2.59,-1.26 v 0 c 0.375,-0.84 0.563,-1.948 0.563,-3.321 v 0 -24.282 h 16.664 c 1.231,0 2.109,0.291 2.634,0.87 v 0 c 0.526,0.581 0.953,1.359 1.284,2.338 v 0 l 1.306,3.619 -1.215,0.458 c -0.782,-1.987 -1.75,-3.353 -2.906,-4.101 v 0 c -1.156,-0.749 -2.559,-1.123 -4.211,-1.123 v 0 h -7.701 v 12.599 h 11.71 v 2.062 h -11.71 v 11.453 h 7.251 c 1.801,0 3.191,-0.427 4.166,-1.282 v 0 c 0.976,-0.856 1.464,-2.261 1.464,-4.215 v 0 h 1.351 v 3.895 c 0,0.458 -0.053,0.908 -0.158,1.35 v 0 c -0.105,0.442 -0.3,0.832 -0.585,1.169 v 0 c -0.287,0.335 -0.676,0.61 -1.172,0.824 v 0 c -0.495,0.214 -1.134,0.321 -1.914,0.321 v 0 z"
         id="path184" /></clipPath><linearGradient
       x1="0"
       y1="0"
       x2="1"
       y2="0"
       gradientUnits="userSpaceOnUse"
       gradientTransform="matrix(0,-46.710922,-46.710922,0,530.12042,279.57718)"
       spreadMethod="pad"
       id="linearGradient196"><stop
         style="stop-opacity:1;stop-color:#89c341"
         offset="0"
         id="stop192" /><stop
         style="stop-opacity:1;stop-color:#009047"
         offset="1"
         id="stop194" /></linearGradient><clipPath
       clipPathUnits="userSpaceOnUse"
       id="clipPath206"><path
         d="m 557.369,265.559 -13.287,-30.237 h 2.252 l 3.713,8.339 h 12.044 l 1.043,-2.566 c 0.54,-1.313 1.163,-2.359 1.868,-3.139 v 0 c 0.705,-0.778 1.456,-1.374 2.253,-1.786 v 0 c 0.794,-0.412 1.604,-0.688 2.431,-0.824 v 0 c 0.826,-0.138 1.599,-0.207 2.32,-0.207 v 0 c 0.329,0 0.712,0.023 1.148,0.069 v 0 c 0.435,0.046 0.772,0.099 1.013,0.16 v 0 1.146 c -1.021,0.121 -1.921,0.579 -2.701,1.374 v 0 c -0.782,0.794 -1.442,1.863 -1.983,3.207 v 0 l -10.087,24.464 z m -1.118,-7.88 4.98,-11.957 h -10.232 z"
         id="path204" /></clipPath><linearGradient
       x1="0"
       y1="0"
       x2="1"
       y2="0"
       gradientUnits="userSpaceOnUse"
       gradientTransform="matrix(0,-46.710922,-46.710922,0,559.12439,279.57718)"
       spreadMethod="pad"
       id="linearGradient216"><stop
         style="stop-opacity:1;stop-color:#89c341"
         offset="0"
         id="stop212" /><stop
         style="stop-opacity:1;stop-color:#009047"
         offset="1"
         id="stop214" /></linearGradient><clipPath
       clipPathUnits="userSpaceOnUse"
       id="clipPath226"><path
         d="m 573.536,265.559 v -1.374 h 0.451 c 1.351,0 2.215,-0.42 2.59,-1.26 v 0 c 0.374,-0.84 0.561,-1.948 0.561,-3.321 v 0 -24.282 h 21.394 v 2.061 h -15.538 v 22.221 c 0,1.129 -0.059,2.076 -0.18,2.84 v 0 c -0.12,0.763 -0.339,1.375 -0.653,1.833 v 0 c -0.316,0.458 -0.736,0.786 -1.26,0.985 v 0 c -0.527,0.198 -1.18,0.297 -1.96,0.297 v 0 z"
         id="path224" /></clipPath><linearGradient
       x1="0"
       y1="0"
       x2="1"
       y2="0"
       gradientUnits="userSpaceOnUse"
       gradientTransform="matrix(0,-46.710922,-46.710922,0,586.03436,279.57718)"
       spreadMethod="pad"
       id="linearGradient236"><stop
         style="stop-opacity:1;stop-color:#89c341"
         offset="0"
         id="stop232" /><stop
         style="stop-opacity:1;stop-color:#009047"
         offset="1"
         id="stop234" /></linearGradient><clipPath
       clipPathUnits="userSpaceOnUse"
       id="clipPath246"><path
         d="m 597.901,265.559 c -0.781,0 -1.418,-0.107 -1.914,-0.321 v 0 c -0.495,-0.214 -0.885,-0.489 -1.171,-0.824 v 0 c -0.285,-0.337 -0.48,-0.727 -0.585,-1.169 v 0 c -0.105,-0.442 -0.158,-0.892 -0.158,-1.35 v 0 V 258 h 1.352 c 0,2.046 0.465,3.474 1.396,4.283 v 0 c 0.93,0.809 2.191,1.214 3.783,1.214 v 0 h 3.198 v -28.175 h 5.855 v 28.175 h 9.412 v 2.062 z"
         id="path244" /></clipPath><linearGradient
       x1="0"
       y1="0"
       x2="1"
       y2="0"
       gradientUnits="userSpaceOnUse"
       gradientTransform="matrix(0,-46.710922,-46.710922,0,606.57159,279.57718)"
       spreadMethod="pad"
       id="linearGradient256"><stop
         style="stop-opacity:1;stop-color:#89c341"
         offset="0"
         id="stop252" /><stop
         style="stop-opacity:1;stop-color:#009047"
         offset="1"
         id="stop254" /></linearGradient><clipPath
       clipPathUnits="userSpaceOnUse"
       id="clipPath266"><path
         d="m 641.542,265.559 v -13.515 h -12.16 v 7.56 c 0,1.129 -0.06,2.076 -0.18,2.84 v 0 c -0.12,0.763 -0.338,1.375 -0.653,1.833 v 0 c -0.316,0.458 -0.737,0.786 -1.261,0.985 v 0 c -0.525,0.198 -1.179,0.297 -1.959,0.297 v 0 h -5.405 v -1.374 h 0.451 c 1.35,0 2.214,-0.42 2.59,-1.26 v 0 c 0.375,-0.84 0.562,-1.948 0.562,-3.321 v 0 -24.282 h 5.855 v 14.66 h 12.16 v -8.704 c 0,-1.161 0.061,-2.124 0.18,-2.886 v 0 c 0.121,-0.764 0.339,-1.374 0.653,-1.832 v 0 c 0.317,-0.458 0.735,-0.78 1.262,-0.963 v 0 c 0.525,-0.183 1.177,-0.275 1.959,-0.275 v 0 H 651 v 1.374 h -0.45 c -1.352,0 -2.215,0.42 -2.589,1.26 v 0 c -0.376,0.84 -0.564,1.948 -0.564,3.322 v 0 24.281 z"
         id="path264" /></clipPath><linearGradient
       x1="0"
       y1="0"
       x2="1"
       y2="0"
       gradientUnits="userSpaceOnUse"
       gradientTransform="matrix(0,-46.710922,-46.710922,0,635.46228,279.57718)"
       spreadMethod="pad"
       id="linearGradient276"><stop
         style="stop-opacity:1;stop-color:#89c341"
         offset="0"
         id="stop272" /><stop
         style="stop-opacity:1;stop-color:#009047"
         offset="1"
         id="stop274" /></linearGradient><clipPath
       clipPathUnits="userSpaceOnUse"
       id="clipPath286"><path
         d="M 0,605.7 H 900 V 0 H 0 Z"
         id="path284" /></clipPath><clipPath
       clipPathUnits="userSpaceOnUse"
       id="clipPath526"><path
         d="m 388.537,369.5 c -1.404,-5.096 -2.451,-10.272 -2.753,-15.549 v 0 c -0.716,-12.517 4.558,-19.759 16.363,-22.603 v 0 c 5.851,-1.409 11.834,-1.446 17.801,-1.37 v 0 c 4.247,0.054 8.335,-0.423 12.216,-2.282 v 0 c 6.484,-3.105 10.944,-8.26 14.658,-14.213 v 0 c 0.413,-0.661 0.518,-1.661 1.948,-1.918 v 0 c -0.355,2.805 -0.574,5.476 -1.048,8.101 v 0 c -0.854,4.724 -1.442,9.628 -4.662,13.473 v 0 c -3.78,4.514 -8.294,8.157 -13.927,10.195 v 0 c -6.054,2.189 -12.166,4.225 -18.159,6.568 v 0 c -5.845,2.286 -10.899,5.768 -15.145,10.5 v 0 c -2.747,3.061 -4.444,6.667 -6.324,10.375 v 0 c -0.738,-0.364 -0.845,-0.833 -0.968,-1.277"
         id="path524" /></clipPath><linearGradient
       x1="0"
       y1="0"
       x2="1"
       y2="0"
       gradientUnits="userSpaceOnUse"
       gradientTransform="matrix(0,-68.164154,-68.164154,0,417.24466,371.61154)"
       spreadMethod="pad"
       id="linearGradient538"><stop
         style="stop-opacity:1;stop-color:#b1d035"
         offset="0"
         id="stop532" /><stop
         style="stop-opacity:1;stop-color:#4f8a40"
         offset="0.527273"
         id="stop534" /><stop
         style="stop-opacity:1;stop-color:#213b21"
         offset="1"
         id="stop536" /></linearGradient><clipPath
       clipPathUnits="userSpaceOnUse"
       id="clipPath548"><path
         d="m 509.425,368.433 c -1.507,-2.895 -3.134,-5.684 -5.331,-8.15 v 0 c -4.885,-5.481 -10.997,-8.952 -17.779,-11.525 v 0 c -6.377,-2.42 -13.142,-3.871 -19.149,-7.196 v 0 c -7.261,-4.022 -12.858,-9.471 -14.14,-18.215 v 0 c -0.316,-2.147 -0.912,-4.26 -1.106,-6.414 v 0 c -0.156,-1.733 -0.817,-3.463 -0.231,-5.863 v 0 c 1.057,1.641 1.798,2.8 2.546,3.954 v 0 c 6.457,9.953 15.104,15.685 27.486,15.043 v 0 c 7.131,-0.371 14.297,0.052 21.062,2.826 v 0 c 5.878,2.411 9.502,6.683 10.858,12.971 v 0 c 1.559,7.228 -0.044,14.188 -1.495,21.17 v 0 c -0.253,1.218 -0.364,2.574 -1.302,3.613 v 0 c -0.916,-0.571 -1.038,-1.48 -1.419,-2.214"
         id="path546" /></clipPath><linearGradient
       x1="0"
       y1="0"
       x2="1"
       y2="0"
       gradientUnits="userSpaceOnUse"
       gradientTransform="matrix(0,-68.164154,-68.164154,0,482.8656,371.61154)"
       spreadMethod="pad"
       id="linearGradient560"><stop
         style="stop-opacity:1;stop-color:#b1d035"
         offset="0"
         id="stop554" /><stop
         style="stop-opacity:1;stop-color:#4f8a40"
         offset="0.527273"
         id="stop556" /><stop
         style="stop-opacity:1;stop-color:#213b21"
         offset="1"
         id="stop558" /></linearGradient><clipPath
       clipPathUnits="userSpaceOnUse"
       id="clipPath570"><path
         d="m 418.576,374.637 c -0.719,-3.222 -1.255,-6.494 -1.409,-9.828 v 0 c -0.366,-7.912 2.33,-12.491 8.367,-14.287 v 0 c 2.991,-0.891 6.05,-0.914 9.101,-0.867 v 0 c 2.171,0.035 4.262,-0.268 6.246,-1.442 v 0 c 3.315,-1.962 5.596,-5.22 7.494,-8.983 v 0 c 0.211,-0.418 0.264,-1.05 0.996,-1.213 v 0 c -0.181,1.773 -0.293,3.461 -0.536,5.12 v 0 c -0.437,2.986 -0.737,6.086 -2.384,8.516 v 0 c -1.932,2.853 -4.24,5.156 -7.12,6.443 v 0 c -3.096,1.385 -6.22,2.672 -9.284,4.153 v 0 c -2.989,1.445 -5.573,3.645 -7.745,6.637 v 0 c -1.404,1.934 -2.271,4.213 -3.232,6.556 v 0 c -0.378,-0.229 -0.432,-0.525 -0.494,-0.805"
         id="path568" /></clipPath><linearGradient
       x1="0"
       y1="0"
       x2="1"
       y2="0"
       gradientUnits="userSpaceOnUse"
       gradientTransform="matrix(0,-43.084324,-43.084324,0,433.25259,375.97067)"
       spreadMethod="pad"
       id="linearGradient582"><stop
         style="stop-opacity:1;stop-color:#b1d035"
         offset="0"
         id="stop576" /><stop
         style="stop-opacity:1;stop-color:#4f8a40"
         offset="0.527273"
         id="stop578" /><stop
         style="stop-opacity:1;stop-color:#213b21"
         offset="1"
         id="stop580" /></linearGradient><clipPath
       clipPathUnits="userSpaceOnUse"
       id="clipPath592"><path
         d="m 480.383,373.962 c -0.769,-1.83 -1.602,-3.593 -2.726,-5.152 v 0 c -2.497,-3.465 -5.622,-5.658 -9.09,-7.285 v 0 c -3.261,-1.529 -6.719,-2.446 -9.789,-4.548 v 0 c -3.714,-2.542 -6.575,-5.986 -7.231,-11.513 v 0 c -0.161,-1.357 -0.466,-2.693 -0.566,-4.054 v 0 c -0.079,-1.096 -0.417,-2.188 -0.117,-3.707 v 0 c 0.54,1.039 0.918,1.772 1.301,2.501 v 0 c 3.302,6.291 7.722,9.913 14.054,9.507 v 0 c 3.646,-0.233 7.31,0.034 10.768,1.787 v 0 c 3.006,1.523 4.859,4.224 5.552,8.198 v 0 c 0.797,4.569 -0.022,8.968 -0.764,13.381 v 0 c -0.13,0.77 -0.186,1.627 -0.666,2.283 v 0 c -0.468,-0.361 -0.531,-0.935 -0.726,-1.398"
         id="path590" /></clipPath><linearGradient
       x1="0"
       y1="0"
       x2="1"
       y2="0"
       gradientUnits="userSpaceOnUse"
       gradientTransform="matrix(0,-43.084324,-43.084324,0,466.80377,375.97067)"
       spreadMethod="pad"
       id="linearGradient604"><stop
         style="stop-opacity:1;stop-color:#b1d035"
         offset="0"
         id="stop598" /><stop
         style="stop-opacity:1;stop-color:#4f8a40"
         offset="0.527273"
         id="stop600" /><stop
         style="stop-opacity:1;stop-color:#213b21"
         offset="1"
         id="stop602" /></linearGradient><clipPath
       clipPathUnits="userSpaceOnUse"
       id="clipPath614"><path
         d="m 467.93,374.704 c -0.431,-1.022 -0.896,-2.009 -1.524,-2.88 v 0 c -1.396,-1.937 -3.144,-3.163 -5.082,-4.073 v 0 c -1.823,-0.855 -3.758,-1.367 -5.474,-2.543 v 0 c -2.075,-1.421 -3.676,-3.347 -4.043,-6.437 v 0 c -0.089,-0.758 -0.26,-1.505 -0.316,-2.267 v 0 c -0.045,-0.612 -0.233,-1.223 -0.065,-2.071 v 0 c 0.301,0.58 0.513,0.99 0.728,1.397 v 0 c 1.845,3.518 4.317,5.542 7.857,5.317 v 0 c 2.038,-0.132 4.087,0.018 6.02,0.998 v 0 c 1.681,0.852 2.717,2.361 3.104,4.583 v 0 c 0.446,2.555 -0.012,5.015 -0.427,7.482 v 0 c -0.073,0.43 -0.104,0.91 -0.372,1.276 v 0 c -0.262,-0.201 -0.297,-0.523 -0.406,-0.782"
         id="path612" /></clipPath><linearGradient
       x1="0"
       y1="0"
       x2="1"
       y2="0"
       gradientUnits="userSpaceOnUse"
       gradientTransform="matrix(0,-24.088642,-24.088642,0,460.33768,375.8277)"
       spreadMethod="pad"
       id="linearGradient626"><stop
         style="stop-opacity:1;stop-color:#b1d035"
         offset="0"
         id="stop620" /><stop
         style="stop-opacity:1;stop-color:#4f8a40"
         offset="0.527273"
         id="stop622" /><stop
         style="stop-opacity:1;stop-color:#213b21"
         offset="1"
         id="stop624" /></linearGradient><clipPath
       clipPathUnits="userSpaceOnUse"
       id="clipPath636"><path
         d="m 431.968,374.21 c -0.415,-2.467 -0.873,-4.927 -0.428,-7.482 v 0 c 0.388,-2.222 1.423,-3.731 3.104,-4.583 v 0 c 1.934,-0.98 3.982,-1.13 6.02,-0.998 v 0 c 3.54,0.225 6.012,-1.799 7.858,-5.317 v 0 c 0.214,-0.407 0.426,-0.817 0.728,-1.397 v 0 c 0.168,0.848 -0.021,1.459 -0.066,2.071 v 0 c -0.055,0.762 -0.226,1.509 -0.316,2.267 v 0 c -0.367,3.09 -1.967,5.016 -4.042,6.437 v 0 c -1.717,1.176 -3.651,1.688 -5.475,2.543 v 0 c -1.938,0.91 -3.685,2.136 -5.081,4.073 v 0 c -0.629,0.871 -1.094,1.858 -1.525,2.88 v 0 c -0.109,0.259 -0.144,0.581 -0.406,0.782 v 0 c -0.268,-0.366 -0.299,-0.846 -0.371,-1.276"
         id="path634" /></clipPath><linearGradient
       x1="0"
       y1="0"
       x2="1"
       y2="0"
       gradientUnits="userSpaceOnUse"
       gradientTransform="matrix(0,-24.088642,24.088642,0,440.33768,375.8277)"
       spreadMethod="pad"
       id="linearGradient648"><stop
         style="stop-opacity:1;stop-color:#b1d035"
         offset="0"
         id="stop642" /><stop
         style="stop-opacity:1;stop-color:#4f8a40"
         offset="0.527273"
         id="stop644" /><stop
         style="stop-opacity:1;stop-color:#213b21"
         offset="1"
         id="stop646" /></linearGradient><clipPath
       clipPathUnits="userSpaceOnUse"
       id="clipPath658"><path
         d="M 458.413,399.118 C 455.972,398.284 450,393.29 450,393.29 v 0 c 0,0 -5.972,4.994 -8.412,5.828 v 0 c -7.31,2.496 -14.721,-4.748 -13.5,-12.445 v 0 c 0.8,-5.05 4.661,-9.214 11.266,-13.099 v 0 c 6.604,-3.885 9.796,-8.774 10.646,-11.17 v 0 c 0.85,2.396 4.042,7.285 10.646,11.17 v 0 c 6.605,3.885 10.465,8.049 11.266,13.099 v 0 c 1.053,6.642 -4.319,12.947 -10.509,12.946 v 0 c -0.983,0 -1.988,-0.159 -2.99,-0.501"
         id="path656" /></clipPath><linearGradient
       x1="0"
       y1="0"
       x2="1"
       y2="0"
       gradientUnits="userSpaceOnUse"
       gradientTransform="matrix(0,-43.039219,-43.039219,0,450,401.99142)"
       spreadMethod="pad"
       id="linearGradient668"><stop
         style="stop-opacity:1;stop-color:#e82a29"
         offset="0"
         id="stop664" /><stop
         style="stop-opacity:1;stop-color:#952321"
         offset="1"
         id="stop666" /></linearGradient><clipPath
       clipPathUnits="userSpaceOnUse"
       id="clipPath678"><path
         d="m 458.771,398.071 c -1.841,-0.629 -6.444,-4.277 -8.061,-5.63 v 0 l -0.71,-0.593 -0.709,0.593 c -1.618,1.353 -6.22,5.001 -8.062,5.63 v 0 c -0.858,0.293 -1.744,0.442 -2.631,0.442 v 0 c -2.582,0 -5.133,-1.255 -7,-3.441 v 0 c -1.995,-2.336 -2.877,-5.334 -2.418,-8.226 v 0 c 0.717,-4.518 4.128,-8.433 10.735,-12.319 v 0 c 5.094,-2.997 8.385,-6.662 10.085,-9.567 v 0 c 1.7,2.905 4.991,6.57 10.086,9.567 v 0 c 6.606,3.887 10.016,7.801 10.734,12.32 v 0 c 0.459,2.892 -0.422,5.89 -2.418,8.225 v 0 c -1.867,2.186 -4.418,3.441 -7,3.441 v 0 c -0.887,0 -1.773,-0.149 -2.631,-0.442"
         id="path676" /></clipPath><clipPath
       clipPathUnits="userSpaceOnUse"
       id="clipPath686"><path
         d="M -32768,32767 H 32767 V -32768 H -32768 Z"
         id="path684" /></clipPath><linearGradient
       x1="0"
       y1="0"
       x2="1"
       y2="0"
       gradientUnits="userSpaceOnUse"
       gradientTransform="matrix(0,-15.718438,-15.718438,0,449.99988,400.79993)"
       spreadMethod="pad"
       id="linearGradient694"><stop
         style="stop-opacity:1;stop-color:#ffffff"
         offset="0"
         id="stop688" /><stop
         style="stop-opacity:0;stop-color:#ffffff"
         offset="1"
         id="stop690" /><stop
         style="stop-opacity:0;stop-color:#ffffff"
         offset="1"
         id="stop692" /></linearGradient><mask
       maskUnits="userSpaceOnUse"
       x="0"
       y="0"
       width="1"
       height="1"
       id="mask696"><g
         id="g706"><g
           clip-path="url(#clipPath686)"
           id="g704"><g
             id="g702"><g
               id="g700"><path
                 d="M -32768,32767 H 32767 V -32768 H -32768 Z"
                 style="fill:url(#linearGradient694);stroke:none"
                 id="path698" /></g></g></g></g></mask><linearGradient
       x1="0"
       y1="0"
       x2="1"
       y2="0"
       gradientUnits="userSpaceOnUse"
       gradientTransform="matrix(0,-15.718438,-15.718438,0,449.99988,400.79993)"
       spreadMethod="pad"
       id="linearGradient718"><stop
         style="stop-opacity:1;stop-color:#ffffff"
         offset="0"
         id="stop712" /><stop
         style="stop-opacity:1;stop-color:#ffffff"
         offset="1"
         id="stop714" /><stop
         style="stop-opacity:1;stop-color:#ffffff"
         offset="1"
         id="stop716" /></linearGradient></defs><sodipodi:namedview
     pagecolor="#ffffff"
     bordercolor="#666666"
     borderopacity="1"
     objecttolerance="10"
     gridtolerance="10"
     guidetolerance="10"
     inkscape:pageopacity="0"
     inkscape:pageshadow="2"
     inkscape:window-width="2190"
     inkscape:window-height="1111"
     id="namedview12"
     showgrid="false"
     inkscape:zoom="2.375"
     inkscape:cx="233.26316"
     inkscape:cy="106.31579"
     inkscape:window-x="602"
     inkscape:window-y="144"
     inkscape:window-maximized="0"
     inkscape:current-layer="g947"
     inkscape:pagecheckerboard="0"
     width="535px"
     showguides="true"
     inkscape:guide-bbox="true"><sodipodi:guide
       position="298.52632,32.128635"
       orientation="1,0"
       id="guide2889" /></sodipodi:namedview><g
     id="g18"
     inkscape:groupmode="layer"
     inkscape:label="ComeForHealth- FF"
     transform="matrix(1.3333333,0,0,-1.3333333,-331.99999,532.82573)"><g
       id="g947"><g
         id="g520"
         transform="matrix(1.9040832,0,0,1.9040796,-476.9389,-370.99387)"><g
           id="g522"
           clip-path="url(#clipPath526)"><g
             id="g528"><g
               id="g530"><path
                 d="m 388.537,369.5 c -1.404,-5.096 -2.451,-10.272 -2.753,-15.549 v 0 c -0.716,-12.517 4.558,-19.759 16.363,-22.603 v 0 c 5.851,-1.409 11.834,-1.446 17.801,-1.37 v 0 c 4.247,0.054 8.335,-0.423 12.216,-2.282 v 0 c 6.484,-3.105 10.944,-8.26 14.658,-14.213 v 0 c 0.413,-0.661 0.518,-1.661 1.948,-1.918 v 0 c -0.355,2.805 -0.574,5.476 -1.048,8.101 v 0 c -0.854,4.724 -1.442,9.628 -4.662,13.473 v 0 c -3.78,4.514 -8.294,8.157 -13.927,10.195 v 0 c -6.054,2.189 -12.166,4.225 -18.159,6.568 v 0 c -5.845,2.286 -10.899,5.768 -15.145,10.5 v 0 c -2.747,3.061 -4.444,6.667 -6.324,10.375 v 0 c -0.738,-0.364 -0.845,-0.833 -0.968,-1.277"
                 style="fill:url(#linearGradient538);stroke:none"
                 id="path540" /></g></g></g></g><g
         id="g542"
         transform="matrix(1.9040832,0,0,1.9040796,-476.9389,-370.99387)"><g
           id="g544"
           clip-path="url(#clipPath548)"><g
             id="g550"><g
               id="g552"><path
                 d="m 509.425,368.433 c -1.507,-2.895 -3.134,-5.684 -5.331,-8.15 v 0 c -4.885,-5.481 -10.997,-8.952 -17.779,-11.525 v 0 c -6.377,-2.42 -13.142,-3.871 -19.149,-7.196 v 0 c -7.261,-4.022 -12.858,-9.471 -14.14,-18.215 v 0 c -0.316,-2.147 -0.912,-4.26 -1.106,-6.414 v 0 c -0.156,-1.733 -0.817,-3.463 -0.231,-5.863 v 0 c 1.057,1.641 1.798,2.8 2.546,3.954 v 0 c 6.457,9.953 15.104,15.685 27.486,15.043 v 0 c 7.131,-0.371 14.297,0.052 21.062,2.826 v 0 c 5.878,2.411 9.502,6.683 10.858,12.971 v 0 c 1.559,7.228 -0.044,14.188 -1.495,21.17 v 0 c -0.253,1.218 -0.364,2.574 -1.302,3.613 v 0 c -0.916,-0.571 -1.038,-1.48 -1.419,-2.214"
                 style="fill:url(#linearGradient560);stroke:none"
                 id="path562" /></g></g></g></g><g
         id="g564"
         transform="matrix(1.9040832,0,0,1.9040796,-476.9389,-370.99387)"><g
           id="g566"
           clip-path="url(#clipPath570)"><g
             id="g572"><g
               id="g574"><path
                 d="m 418.576,374.637 c -0.719,-3.222 -1.255,-6.494 -1.409,-9.828 v 0 c -0.366,-7.912 2.33,-12.491 8.367,-14.287 v 0 c 2.991,-0.891 6.05,-0.914 9.101,-0.867 v 0 c 2.171,0.035 4.262,-0.268 6.246,-1.442 v 0 c 3.315,-1.962 5.596,-5.22 7.494,-8.983 v 0 c 0.211,-0.418 0.264,-1.05 0.996,-1.213 v 0 c -0.181,1.773 -0.293,3.461 -0.536,5.12 v 0 c -0.437,2.986 -0.737,6.086 -2.384,8.516 v 0 c -1.932,2.853 -4.24,5.156 -7.12,6.443 v 0 c -3.096,1.385 -6.22,2.672 -9.284,4.153 v 0 c -2.989,1.445 -5.573,3.645 -7.745,6.637 v 0 c -1.404,1.934 -2.271,4.213 -3.232,6.556 v 0 c -0.378,-0.229 -0.432,-0.525 -0.494,-0.805"
                 style="fill:url(#linearGradient582);stroke:none"
                 id="path584" /></g></g></g></g><g
         id="g586"
         transform="matrix(1.9040832,0,0,1.9040796,-476.9389,-370.99387)"><g
           id="g588"
           clip-path="url(#clipPath592)"><g
             id="g594"><g
               id="g596"><path
                 d="m 480.383,373.962 c -0.769,-1.83 -1.602,-3.593 -2.726,-5.152 v 0 c -2.497,-3.465 -5.622,-5.658 -9.09,-7.285 v 0 c -3.261,-1.529 -6.719,-2.446 -9.789,-4.548 v 0 c -3.714,-2.542 -6.575,-5.986 -7.231,-11.513 v 0 c -0.161,-1.357 -0.466,-2.693 -0.566,-4.054 v 0 c -0.079,-1.096 -0.417,-2.188 -0.117,-3.707 v 0 c 0.54,1.039 0.918,1.772 1.301,2.501 v 0 c 3.302,6.291 7.722,9.913 14.054,9.507 v 0 c 3.646,-0.233 7.31,0.034 10.768,1.787 v 0 c 3.006,1.523 4.859,4.224 5.552,8.198 v 0 c 0.797,4.569 -0.022,8.968 -0.764,13.381 v 0 c -0.13,0.77 -0.186,1.627 -0.666,2.283 v 0 c -0.468,-0.361 -0.531,-0.935 -0.726,-1.398"
                 style="fill:url(#linearGradient604);stroke:none"
                 id="path606" /></g></g></g></g><g
         id="g608"
         transform="matrix(1.9040832,0,0,1.9040796,-476.9389,-370.99387)"><g
           id="g610"
           clip-path="url(#clipPath614)"><g
             id="g616"><g
               id="g618"><path
                 d="m 467.93,374.704 c -0.431,-1.022 -0.896,-2.009 -1.524,-2.88 v 0 c -1.396,-1.937 -3.144,-3.163 -5.082,-4.073 v 0 c -1.823,-0.855 -3.758,-1.367 -5.474,-2.543 v 0 c -2.075,-1.421 -3.676,-3.347 -4.043,-6.437 v 0 c -0.089,-0.758 -0.26,-1.505 -0.316,-2.267 v 0 c -0.045,-0.612 -0.233,-1.223 -0.065,-2.071 v 0 c 0.301,0.58 0.513,0.99 0.728,1.397 v 0 c 1.845,3.518 4.317,5.542 7.857,5.317 v 0 c 2.038,-0.132 4.087,0.018 6.02,0.998 v 0 c 1.681,0.852 2.717,2.361 3.104,4.583 v 0 c 0.446,2.555 -0.012,5.015 -0.427,7.482 v 0 c -0.073,0.43 -0.104,0.91 -0.372,1.276 v 0 c -0.262,-0.201 -0.297,-0.523 -0.406,-0.782"
                 style="fill:url(#linearGradient626);stroke:none"
                 id="path628" /></g></g></g></g><g
         id="g630"
         transform="matrix(1.9040832,0,0,1.9040796,-476.9389,-370.99387)"><g
           id="g632"
           clip-path="url(#clipPath636)"><g
             id="g638"><g
               id="g640"><path
                 d="m 431.968,374.21 c -0.415,-2.467 -0.873,-4.927 -0.428,-7.482 v 0 c 0.388,-2.222 1.423,-3.731 3.104,-4.583 v 0 c 1.934,-0.98 3.982,-1.13 6.02,-0.998 v 0 c 3.54,0.225 6.012,-1.799 7.858,-5.317 v 0 c 0.214,-0.407 0.426,-0.817 0.728,-1.397 v 0 c 0.168,0.848 -0.021,1.459 -0.066,2.071 v 0 c -0.055,0.762 -0.226,1.509 -0.316,2.267 v 0 c -0.367,3.09 -1.967,5.016 -4.042,6.437 v 0 c -1.717,1.176 -3.651,1.688 -5.475,2.543 v 0 c -1.938,0.91 -3.685,2.136 -5.081,4.073 v 0 c -0.629,0.871 -1.094,1.858 -1.525,2.88 v 0 c -0.109,0.259 -0.144,0.581 -0.406,0.782 v 0 c -0.268,-0.366 -0.299,-0.846 -0.371,-1.276"
                 style="fill:url(#linearGradient648);stroke:none"
                 id="path650" /></g></g></g></g><g
         id="g652"
         transform="matrix(1.9040832,0,0,1.9040796,-476.9389,-370.99387)"><g
           id="g654"
           clip-path="url(#clipPath658)"><g
             id="g660"><g
               id="g662"><path
                 d="M 458.413,399.118 C 455.972,398.284 450,393.29 450,393.29 v 0 c 0,0 -5.972,4.994 -8.412,5.828 v 0 c -7.31,2.496 -14.721,-4.748 -13.5,-12.445 v 0 c 0.8,-5.05 4.661,-9.214 11.266,-13.099 v 0 c 6.604,-3.885 9.796,-8.774 10.646,-11.17 v 0 c 0.85,2.396 4.042,7.285 10.646,11.17 v 0 c 6.605,3.885 10.465,8.049 11.266,13.099 v 0 c 1.053,6.642 -4.319,12.947 -10.509,12.946 v 0 c -0.983,0 -1.988,-0.159 -2.99,-0.501"
                 style="fill:url(#linearGradient668);stroke:none"
                 id="path670" /></g></g></g></g><g
         id="g672"
         transform="matrix(1.9040832,0,0,1.9040796,-476.9389,-370.99387)"><g
           id="g674"
           clip-path="url(#clipPath678)"><g
             id="g680"><g
               id="g682" /><g
               id="g708"
               mask="url(#mask696)"><g
                 id="g710"><path
                   d="m 458.771,398.071 c -1.841,-0.629 -6.444,-4.277 -8.061,-5.63 v 0 l -0.71,-0.593 -0.709,0.593 c -1.618,1.353 -6.22,5.001 -8.062,5.63 v 0 c -0.858,0.293 -1.744,0.442 -2.631,0.442 v 0 c -2.582,0 -5.133,-1.255 -7,-3.441 v 0 c -1.995,-2.336 -2.877,-5.334 -2.418,-8.226 v 0 c 0.717,-4.518 4.128,-8.433 10.735,-12.319 v 0 c 5.094,-2.997 8.385,-6.662 10.085,-9.567 v 0 c 1.7,2.905 4.991,6.57 10.086,9.567 v 0 c 6.606,3.887 10.016,7.801 10.734,12.32 v 0 c 0.459,2.892 -0.422,5.89 -2.418,8.225 v 0 c -1.867,2.186 -4.418,3.441 -7,3.441 v 0 c -0.887,0 -1.773,-0.149 -2.631,-0.442"
                   style="fill:url(#linearGradient718);stroke:none"
                   id="path720" /></g></g></g></g></g><rect
         style="fill:none;stroke-width:0.763323"
         id="rect2727"
         width="258"
         height="184.72797"
         x="255.32549"
         y="-392.97888"
         transform="scale(1,-1)"
         ry="5.9976621" /></g><rect
       style="fill:none;fill-rule:evenodd;stroke-width:1.30572"
       id="rect825"
       width="312.67053"
       height="198.4252"
       x="271.67715"
       y="-410.35693"
       transform="scale(1,-1)" /><g
       id="g1847"
       transform="matrix(1.9040832,0,0,1.9040796,-472.84801,-370.99468)"><rect
         style="fill:none;stroke-width:0.65121"
         id="rect1764"
         width="144.63156"
         height="90.947357"
         x="379.10529"
         y="-398.98773"
         transform="scale(1,-1)" /></g></g></svg>
